<?xml version="1.0" encoding="UTF-8"?>
<svg version="1.1" xmlns="http://www.w3.org/2000/svg" width="256" height="256">
<path d="M0 0 C2.73681743 2.32695588 4.3632735 4.8774189 6.125 8 C5.40054688 8.58265625 4.67609375 9.1653125 3.9296875 9.765625 C-3.8122661 16.33080166 -10.03056935 23.61294317 -11.875 34 C-12.72761053 45.7548436 -11.62477514 56.5745978 -3.875 66 C0.4830407 70.25973903 4.81704078 73.97624193 10.125 77 C9.56882134 82.06044241 7.86464104 86.14590498 5.5625 90.625 C5.20607422 91.3250415 4.84964844 92.02508301 4.48242188 92.74633789 C-1.77612599 104.80009208 -10.15411921 120.46255683 -23.875 125 C-32.0180708 126.38386456 -38.50696207 124.43516891 -45.96484375 121.19140625 C-56.81697474 116.74858752 -66.60424299 119.52649387 -77.0625 123.625 C-83.39863297 126.007386 -88.25712896 126.47716629 -94.6171875 124.0625 C-110.76261461 116.46465195 -120.58343989 96.79128118 -126.875 81 C-131.24095304 68.85728726 -134.26710184 57.08645344 -134.1875 44.125 C-134.18186035 43.15900879 -134.1762207 42.19301758 -134.17041016 41.19775391 C-133.90808146 25.76711229 -129.09038032 12.47387909 -118.296875 1.19140625 C-109.3236083 -6.92795281 -99.05384121 -10.72556101 -87.0234375 -10.58203125 C-81.82926795 -10.08569949 -77.10914212 -8.1145574 -72.25 -6.3125 C-63.79484087 -3.2143749 -58.36346471 -2.22037296 -49.875 -6 C-47.91962309 -6.71645424 -45.96129599 -7.42491173 -44 -8.125 C-43.09894531 -8.46273437 -42.19789063 -8.80046875 -41.26953125 -9.1484375 C-26.842988 -14.27892107 -11.47657035 -9.32022101 0 0 Z " fill="#010000" transform="translate(189.875,92)"/>
<path d="M0 0 C0.55735941 26.45817914 -15.70659503 48.05190345 -33.203125 66.390625 C-39.75040598 73.12172001 -46.59361406 79.21969559 -54 85 C-54.845625 85.74121094 -55.69125 86.48242188 -56.5625 87.24609375 C-59 89 -59 89 -63 89 C-71.73976084 65.63740307 -77.14621937 41.57168261 -66.375 17.875 C-60.30946623 6.4610399 -51.68820321 -1.07761093 -39.75 -5.875 C-25.5541474 -9.9168747 -13.22647353 -4.98312029 0 0 Z " fill="#5D5D5D" transform="translate(128,89)"/>
<path d="M0 0 C9.85716097 0 19.11996168 4.12306621 28.25 7.5 C28.80735941 33.95817914 12.54340497 55.55190345 -4.953125 73.890625 C-11.50040598 80.62172001 -18.34361406 86.71969559 -25.75 92.5 C-26.595625 93.24121094 -27.44125 93.98242188 -28.3125 94.74609375 C-30.75 96.5 -30.75 96.5 -34.75 96.5 C-35.74 93.2 -36.73 89.9 -37.75 86.5 C-36.409375 86.561875 -35.06875 86.62375 -33.6875 86.6875 C-25.57679203 86.62423395 -20.72055453 83.24702729 -14.9453125 77.84375 C-2.57375652 64.63568312 5.05230088 43.8858432 4.59765625 25.95703125 C3.65065971 16.5402679 -0.09295286 8.96730223 -5.75 1.5 C-4.09159446 -0.15840554 -2.2980078 0.12983095 0 0 Z " fill="#4A4A4A" transform="translate(99.75,81.5)"/>
<path d="M0 0 C0.89257278 11.42989035 -2.75047206 21.16359382 -10 30 C-17.00541796 37.33970139 -23.86566514 41.19981718 -33.99609375 42.01953125 C-36 42 -36 42 -37 41 C-38.46616109 31.00915946 -34.55766705 22.19261428 -28.8125 14.1875 C-23.41341974 7.77826924 -8.92560205 -4.46280102 0 0 Z " fill="#4F4F4F" transform="translate(164,39)"/>
<path d="M0 0 C1.93383916 1.66094548 3.77081676 3.35613087 5.5546875 5.17578125 C5.2246875 6.82578125 4.8946875 8.47578125 4.5546875 10.17578125 C1.67505916 11.13565736 -0.11158691 11.29731939 -3.1003418 11.28930664 C-4.04109055 11.28923111 -4.98183929 11.28915558 -5.95109558 11.28907776 C-6.96367935 11.28391647 -7.97626312 11.27875519 -9.01953125 11.2734375 C-10.05850052 11.27202255 -11.09746979 11.2706076 -12.16792297 11.26914978 C-15.48958198 11.26354781 -18.81117383 11.25099497 -22.1328125 11.23828125 C-24.38346257 11.2332665 -26.63411369 11.22870355 -28.88476562 11.22460938 C-34.40497087 11.21357774 -39.92513689 11.19683768 -45.4453125 11.17578125 C-44.56000925 5.48877568 -43.36826387 1.48912341 -39.4453125 -2.82421875 C-29.10249358 -9.83590455 -9.49889639 -7.0862374 0 0 Z " fill="#4D4C4C" transform="translate(182.4453125,89.82421875)"/>
<path d="M0 0 C0.66 0.33 1.32 0.66 2 1 C2.89257278 12.42989035 -0.75047206 22.16359382 -8 31 C-15.64783048 39.01276845 -22.95835276 42.54747347 -34 43 C-34.33 42.34 -34.66 41.68 -35 41 C-34.23816406 40.6596875 -33.47632813 40.319375 -32.69140625 39.96875 C-18.69569283 33.39897691 -9.21106327 23.98428039 -3.84375 9.33984375 C-3.5653125 8.56769531 -3.286875 7.79554687 -3 7 C-2.02649442 4.65435509 -1.01265602 2.32910885 0 0 Z " fill="#010101" transform="translate(162,38)"/>
<path d="M0 0 C16.5 0 33 0 50 0 C48 5 48 5 47 7 C46.41784225 6.99777939 45.83568451 6.99555878 45.23588562 6.99327087 C39.18533948 6.97117418 33.13480478 6.95607501 27.08422852 6.94506836 C24.8251092 6.94003474 22.56599314 6.93320738 20.30688477 6.92456055 C17.06265457 6.91245255 13.81846739 6.90676201 10.57421875 6.90234375 C9.56163498 6.89718246 8.54905121 6.89202118 7.50578308 6.88670349 C6.56503433 6.88662796 5.62428558 6.88655243 4.6550293 6.88647461 C3.41259712 6.88314369 3.41259712 6.88314369 2.14506531 6.87974548 C-0.18652286 6.91626804 -0.18652286 6.91626804 -3 8 C-1.125 2.25 -1.125 2.25 0 0 Z " fill="#2F2E2E" transform="translate(136,100)"/>
<path d="M0 0 C0.66 0.99 1.32 1.98 2 3 C-11.2 3 -24.4 3 -38 3 C-37.67 1.68 -37.34 0.36 -37 -1 C-26.30714869 -6.34642566 -10.37189506 -6.04521759 0 0 Z " fill="#9C9B9C" transform="translate(180,88)"/>
<path d="M0 0 C0.33 0.66 0.66 1.32 1 2 C2.22630127 1.95399658 3.45260254 1.90799316 4.71606445 1.8605957 C9.2610254 1.6941656 13.80645026 1.54798876 18.35229492 1.40795898 C20.32058028 1.34448685 22.28869592 1.2755051 24.2565918 1.20092773 C27.08355743 1.09474728 29.91053911 1.00832551 32.73828125 0.92578125 C33.61962234 0.88842361 34.50096344 0.85106598 35.40901184 0.81257629 C36.22963608 0.79232895 37.05026031 0.7720816 37.89575195 0.7512207 C38.61745071 0.72679398 39.33914948 0.70236725 40.0827179 0.67720032 C42.58745979 1.09890659 43.46727323 2.01618027 45 4 C45 4.66 45 5.32 45 6 C29.82 6 14.64 6 -1 6 C-0.67 4.02 -0.34 2.04 0 0 Z " fill="#7A7979" transform="translate(141,89)"/>
<path d="M0 0 C0.33 0.66 0.66 1.32 1 2 C16.51 1.67 32.02 1.34 48 1 C48.495 2.98 48.495 2.98 49 5 C33.16 5 17.32 5 1 5 C0.67 3.35 0.34 1.7 0 0 Z " fill="#646363" transform="translate(139,93)"/>
<path d="M0 0 C16.5 0 33 0 50 0 C49.34 1.32 48.68 2.64 48 4 C32.16 3.67 16.32 3.34 0 3 C0 2.01 0 1.02 0 0 Z " fill="#3C3B3B" transform="translate(136,100)"/>
<path d="M0 0 C0.75087891 -0.00773437 1.50175781 -0.01546875 2.27539062 -0.0234375 C6.48752924 -0.00861907 9.71753835 0.32369715 13.5625 2.25 C13.5625 2.91 13.5625 3.57 13.5625 4.25 C5.3125 4.25 -2.9375 4.25 -11.4375 4.25 C-11.7675 3.59 -12.0975 2.93 -12.4375 2.25 C-8.56462509 -0.33876519 -4.47940094 -0.04590334 0 0 Z " fill="#C8C8C8" transform="translate(160.4375,83.75)"/>
<path d="M0 0 C0.33 0.66 0.66 1.32 1 2 C14.53 1.67 28.06 1.34 42 1 C42.495 2.485 42.495 2.485 43 4 C28.81 4 14.62 4 0 4 C0 2.68 0 1.36 0 0 Z " fill="#8B8B8B" transform="translate(141,89)"/>
<path d="M0 0 C0.33 0.99 0.66 1.98 1 3 C0.18660156 2.83757812 -0.62679687 2.67515625 -1.46484375 2.5078125 C-5.53643948 1.92294239 -9.45709912 1.85348698 -13.5625 1.875 C-14.30435547 1.87113281 -15.04621094 1.86726563 -15.81054688 1.86328125 C-19.66500306 1.87014582 -23.25431062 2.06543196 -27 3 C-26.67 2.01 -26.34 1.02 -26 0 C-18.29533537 -3.15267459 -7.70466463 -3.15267459 0 0 Z " fill="#151515" transform="translate(174,83)"/>
<path d="M0 0 C23.265 0.495 23.265 0.495 47 1 C47 1.33 47 1.66 47 2 C46.44289841 2.01030746 45.88579681 2.02061493 45.31181335 2.03123474 C39.52066308 2.1393002 33.72966839 2.25389827 27.9387207 2.37231445 C25.7766444 2.41566313 23.61453387 2.45733825 21.45239258 2.49731445 C18.34706298 2.55501844 15.24190564 2.61871272 12.13671875 2.68359375 C11.16788254 2.70030624 10.19904633 2.71701874 9.20085144 2.73423767 C7.84979057 2.7641555 7.84979057 2.7641555 6.47143555 2.79467773 C5.67867722 2.81022202 4.88591888 2.8257663 4.06913757 2.84178162 C1.80260226 2.93081226 1.80260226 2.93081226 -1 4 C-0.67 2.68 -0.34 1.36 0 0 Z " fill="#262525" transform="translate(134,104)"/>
<path d="M0 0 C0.53915039 0.15847412 1.07830078 0.31694824 1.63378906 0.48022461 C4.40557189 1.08909023 7.02288851 1.21510316 9.859375 1.31640625 C10.97441406 1.35830078 12.08945313 1.40019531 13.23828125 1.44335938 C14.39714844 1.48267578 15.55601562 1.52199219 16.75 1.5625 C18.51150391 1.62727539 18.51150391 1.62727539 20.30859375 1.69335938 C23.20561451 1.79934794 26.10271935 1.90141638 29 2 C29 1.34 29 0.68 29 0 C29.99 0.33 30.98 0.66 32 1 C32 1.66 32 2.32 32 3 C21.44 3 10.88 3 0 3 C0 2.01 0 1.02 0 0 Z " fill="#AFAFAF" transform="translate(145,86)"/>
<path d="M0 0 C0.66 0 1.32 0 2 0 C2 0.66 2 1.32 2 2 C12.56 2 23.12 2 34 2 C34.33 1.34 34.66 0.68 35 0 C35 0.99 35 1.98 35 3 C23.12 3 11.24 3 -1 3 C-0.67 2.01 -0.34 1.02 0 0 Z " fill="#A5A5A5" transform="translate(143,87)"/>
<path d="M0 0 C0.66 0 1.32 0 2 0 C0.41332422 3.90285767 -2.13350481 6.33520982 -5.125 9.25 C-6.03507812 10.14203125 -6.94515625 11.0340625 -7.8828125 11.953125 C-8.58148438 12.62859375 -9.28015625 13.3040625 -10 14 C-10 9.88181592 -8.33436007 8.84145243 -5.5625 5.875 C-4.73878906 4.98554687 -3.91507812 4.09609375 -3.06640625 3.1796875 C-1 1 -1 1 0 0 Z " fill="#8B8B8B" transform="translate(75,90)"/>
<path d="M0 0 C0.99 0.33 1.98 0.66 3 1 C3 1.66 3 2.32 3 3 C-5.25 3 -13.5 3 -22 3 C-22 2.67 -22 2.34 -22 2 C-14.74 2 -7.48 2 0 2 C0 1.34 0 0.68 0 0 Z " fill="#BDBCBC" transform="translate(171,85)"/>
<path d="M0 0 C0.66 0.33 1.32 0.66 2 1 C0.38405168 3.04119788 -1.2856382 5.04072937 -3 7 C-3.66 7 -4.32 7 -5 7 C-3.70700306 4.11562221 -2.34058637 2.12780579 0 0 Z " fill="#828282" transform="translate(141,47)"/>
</svg>
