<svg xmlns="http://www.w3.org/2000/svg" aria-hidden="true" style="position:absolute;width:0;height:0;overflow:hidden"><defs>
<symbol id="icon-image" viewBox="0 0 32 32">
<path d="M30 4v24H2V4h28zm0-2H2a2 2 0 0 0-2 2v24c0 1.1.9 2 2 2h28a2 2 0 0 0 2-2V4a2 2 0 0 0-2-2z"/>
<path d="M26 9a3 3 0 1 1-6 0 3 3 0 0 1 6 0zM28 26H4v-4l7-12 8 10h2l7-6z"/></symbol>
<symbol id="icon-camera" viewBox="0 0 32 32">
<path d="M9.5 19a6.5 6.5 0 1 0 13 0 6.5 6.5 0 0 0-13 0zM30 8h-7c-.5-2-1-4-3-4h-8c-2 0-2.5 2-3 4H2a2 2 0 0 0-2 2v18c0 1.1.9 2 2 2h28a2 2 0 0 0 2-2V10a2 2 0 0 0-2-2zM16 27.88a8.87 8.87 0 1 1 0-17.75 8.87 8.87 0 0 1 0 17.74zM30 14h-4v-2h4v2z"/></symbol>
<symbol id="icon-phone" viewBox="0 0 32 32">
<path d="M22 20c-2 2-2 4-4 4s-4-2-6-4-4-4-4-6 2-2 4-4-4-8-6-8-6 6-6 6c0 4 4.1 12.1 8 16s12 8 16 8c0 0 6-4 6-6s-6-8-8-6z"/></symbol>
<symbol id="icon-alarm" viewBox="0 0 32 32">
<path d="M16 4a14 14 0 1 0 0 28 14 14 0 0 0 0-28zm0 25.25a11.25 11.25 0 1 1 0-22.5 11.25 11.25 0 0 1 0 22.5zM29.21 8.97a6 6 0 0 0-9.96-6.64c4.12.85 7.67 3.29 9.96 6.64zM12.75 2.33a5.99 5.99 0 0 0-9.96 6.64 16 16 0 0 1 9.96-6.64z"/><path d="M16 18v-8h-2v10h8v-2z"/></symbol>
<symbol id="icon-key" viewBox="0 0 32 32">
<path d="M22 0a10 10 0 0 0-9.83 11.83L0 24v6c0 1.1.9 2 2 2h2v-2h4v-4h4v-4h4l2.6-2.6A10 10 0 1 0 22 0zm3 10a3 3 0 1 1 0-6 3 3 0 0 1 0 6z"/></symbol>
<symbol id="icon-lock" viewBox="0 0 32 32" width="150px">
<path d="M18.5 14H18V8a6 6 0 0 0-6-6H8a6 6 0 0 0-6 6v6h-.5c-.82 0-1.5.68-1.5 1.5v15c0 .82.68 1.5 1.5 1.5h17c.82 0 1.5-.68 1.5-1.5v-15c0-.82-.68-1.5-1.5-1.5zM6 8c0-1.1.9-2 2-2h4a2 2 0 0 1 2 2v6H6V8z"/></symbol>
<symbol id="icon-unlocked" viewBox="0 0 32 32">
<path d="M24 2a6 6 0 0 1 6 6v6h-4V8a2 2 0 0 0-2-2h-4a2 2 0 0 0-2 2v6h.5c.82 0 1.5.68 1.5 1.5v15c0 .82-.68 1.5-1.5 1.5h-17A1.5 1.5 0 0 1 0 30.5v-15c0-.82.68-1.5 1.5-1.5H14V8a6 6 0 0 1 6-6h4z"/></symbol>
<symbol id="icon-cog" viewBox="0 0 32 32">
<path d="M29.18 19.07a6.1 6.1 0 0 1 2.26-8.33L28.29 5.3A6.1 6.1 0 0 1 19.15 0h-6.3c.02 1.04-.24 2.1-.8 3.07A6.1 6.1 0 0 1 3.7 5.28L.56 10.73a6.1 6.1 0 0 1 0 10.55l3.15 5.45A6.1 6.1 0 0 1 12.85 32h6.3c-.01-1.04.25-2.08.8-3.04a6.1 6.1 0 0 1 8.33-2.22l3.14-5.45a6.03 6.03 0 0 1-2.23-2.22zM16 22.47a6.48 6.48 0 1 1 0-12.95 6.48 6.48 0 0 1 0 12.96z"/></symbol>
</defs></svg>