<?xml version="1.0" encoding="UTF-8"?>
<svg version="1.1" xmlns="http://www.w3.org/2000/svg" width="960" height="960">
<path d="M0 0 C316.8 0 633.6 0 960 0 C960 316.8 960 633.6 960 960 C643.2 960 326.4 960 0 960 C0 643.2 0 326.4 0 0 Z " fill="#3B579D" transform="translate(0,0)"/>
<path d="M0 0 C1.24592926 0.00332336 2.49185852 0.00664673 3.77554321 0.0100708 C26.94275981 0.08193227 49.94572722 1.22903879 73.02423096 3.18823242 C76.35751808 3.46793348 79.69241266 3.72502578 83.02734375 3.984375 C97.58397817 5.15299272 97.58397817 5.15299272 101.25 6.375 C101.25 48.945 101.25 91.515 101.25 135.375 C55.875 135.625 55.875 135.625 41.65869141 135.67285156 C37.37587807 135.70615652 37.37587807 135.70615652 33.09310913 135.74456787 C31.21644121 135.75898208 29.33970536 135.76594571 27.46298218 135.76654053 C7.19380247 135.78392713 -15.34744738 137.59447354 -30.75 152.375 C-47.24817883 170.5426374 -46.04781892 194.03381593 -46.1640625 217.125 C-46.18104009 219.2135487 -46.19886131 221.30209072 -46.2175293 223.390625 C-46.28019392 231.05200687 -46.32665749 238.71351437 -46.375 246.375 C-46.49875 263.535 -46.6225 280.695 -46.75 298.375 C0.44 298.375 47.63 298.375 96.25 298.375 C95.59 303.325 94.93 308.275 94.25 313.375 C94.10276921 316.03963598 93.99120237 318.70683999 93.9375 321.375 C93.56513754 331.36201021 91.77811092 341.14126476 90.12231445 350.97583008 C88.94364716 357.99130825 87.83422015 364.98248439 87.125 372.0625 C86.53286004 377.96815487 85.77924467 383.82109499 84.875 389.6875 C83.56804846 398.20055348 82.3232685 406.72092329 81.125 415.25 C80.95436035 416.43762939 80.7837207 417.62525879 80.60791016 418.84887695 C80.44597168 420.00991943 80.2840332 421.17096191 80.1171875 422.3671875 C79.97394043 423.38151855 79.83069336 424.39584961 79.68310547 425.44091797 C79.02684785 431.40198632 78.6772745 437.39315694 78.25 443.375 C37 443.375 -4.25 443.375 -46.75 443.375 C-46.75 566.135 -46.75 688.895 -46.75 815.375 C-96.25 815.375 -145.75 815.375 -196.75 815.375 C-196.75 692.615 -196.75 569.855 -196.75 443.375 C-238.33 443.375 -279.91 443.375 -322.75 443.375 C-322.75 395.525 -322.75 347.675 -322.75 298.375 C-281.17 298.375 -239.59 298.375 -196.75 298.375 C-196.9467254 258.94879562 -196.9467254 258.94879562 -197.20043945 219.52294922 C-197.57219642 133.41898533 -197.57219642 133.41898533 -179.76660156 100.41821289 C-178.67873547 98.23176924 -177.83883965 96.02315032 -176.98828125 93.734375 C-174.86994648 88.38845057 -172.12200504 83.68947344 -169 78.875 C-168.46560303 78.04331299 -167.93120605 77.21162598 -167.38061523 76.35473633 C-163.5014445 70.38475633 -159.47856298 64.70847825 -154.75 59.375 C-154.2957666 58.85131836 -153.8415332 58.32763672 -153.37353516 57.78808594 C-133.30770209 34.75746602 -106.16611836 17.63853855 -76.75 9.375 C-75.8518457 9.11734863 -74.95369141 8.85969727 -74.02832031 8.59423828 C-71.08832554 7.76376243 -68.14068103 6.96971616 -65.1875 6.1875 C-64.32229736 5.9493457 -63.45709473 5.71119141 -62.56567383 5.46582031 C-42.11659481 0.30149078 -20.96385078 -0.13374795 0 0 Z " fill="#FEFEFE" transform="translate(709.75,144.625)"/>
<path d="M0 0 C0 122.76 0 245.52 0 372 C-0.66 372 -1.32 372 -2 372 C-2 249.9 -2 127.8 -2 2 C-42.59 2 -83.18 2 -125 2 C-125 1.67 -125 1.34 -125 1 C-108.99733369 0.86951754 -92.99466664 0.73912764 -76.99199867 0.60884857 C-69.56204823 0.54835855 -62.13209805 0.487838 -54.70214844 0.42724609 C-48.22784294 0.37444763 -41.75353699 0.32170591 -35.27923048 0.26903296 C-31.84967285 0.24112914 -28.42011546 0.21319648 -24.99055862 0.18519592 C-21.16639527 0.15397467 -17.34223089 0.12288008 -13.51806641 0.09179688 C-12.37511612 0.08244614 -11.23216583 0.0730954 -10.05458069 0.0634613 C-9.01689041 0.05504715 -7.97920013 0.046633 -6.9100647 0.03796387 C-6.00486399 0.03058952 -5.09966328 0.02321518 -4.16703224 0.01561737 C-2.77804781 0.00560724 -1.3890205 0 0 0 Z " fill="#4560A2" transform="translate(513,588)"/>
<path d="M0 0 C0.33 0 0.66 0 1 0 C1.13535156 0.71542969 1.27070313 1.43085937 1.41015625 2.16796875 C4.6465385 17.14834887 12.13284223 29.21611257 24.9375 37.875 C31.34916274 41.54252311 38.64495292 44.20485978 46 45 C46 45.33 46 45.66 46 46 C30.82 46 15.64 46 0 46 C0 30.82 0 15.64 0 0 Z " fill="#FEFEFE" transform="translate(0,914)"/>
<path d="M0 0 C0.33 0 0.66 0 1 0 C1 15.18 1 30.36 1 46 C-14.18 46 -29.36 46 -45 46 C-45 45.67 -45 45.34 -45 45 C-44.24976563 44.84144531 -43.49953125 44.68289063 -42.7265625 44.51953125 C-27.71706273 41.09797022 -16.79530845 33.98367141 -7.53515625 21.52734375 C-3.52240211 14.92110475 -1.07526779 7.62982568 0 0 Z " fill="#FEFEFE" transform="translate(959,914)"/>
<path d="M0 0 C15.18 0 30.36 0 46 0 C46 15.18 46 30.36 46 46 C45.67 46 45.34 46 45 46 C44.84144531 45.24976563 44.68289063 44.49953125 44.51953125 43.7265625 C41.09797022 28.71706273 33.98367141 17.79530845 21.52734375 8.53515625 C14.92110475 4.52240211 7.62982568 2.07526779 0 1 C0 0.67 0 0.34 0 0 Z " fill="#FEFEFE" transform="translate(914,0)"/>
<path d="M0 0 C15.18 0 30.36 0 46 0 C46 0.33 46 0.66 46 1 C45.24976563 1.15855469 44.49953125 1.31710938 43.7265625 1.48046875 C28.71706273 4.90202978 17.79530845 12.01632859 8.53515625 24.47265625 C4.52240211 31.07889525 2.07526779 38.37017432 1 46 C0.67 46 0.34 46 0 46 C0 30.82 0 15.64 0 0 Z " fill="#FEFEFE" transform="translate(0,0)"/>
<path d="M0 0 C0.55880859 0.71929687 0.55880859 0.71929687 1.12890625 1.453125 C0.46890625 2.113125 -0.19109375 2.773125 -0.87109375 3.453125 C-0.87109375 2.793125 -0.87109375 2.133125 -0.87109375 1.453125 C-9.45109375 0.793125 -18.03109375 0.133125 -26.87109375 -0.546875 C-26.87109375 -0.876875 -26.87109375 -1.206875 -26.87109375 -1.546875 C-4.9732399 -4.11148851 -4.9732399 -4.11148851 0 0 Z " fill="#516AA8" transform="translate(811.87109375,149.546875)"/>
<path d="M0 0 C1.02451301 3.23392606 0.95041862 5.64525388 0.44140625 8.984375 C0.30283203 9.91894531 0.16425781 10.85351562 0.02148438 11.81640625 C-0.12998047 12.78449219 -0.28144531 13.75257813 -0.4375 14.75 C-0.58509766 15.73355469 -0.73269531 16.71710937 -0.88476562 17.73046875 C-1.24958978 20.15478412 -1.62156746 22.57777798 -2 25 C-2.33 25 -2.66 25 -3 25 C-3.08156437 22.14524694 -3.14076372 19.29286435 -3.1875 16.4375 C-3.21263672 15.63763672 -3.23777344 14.83777344 -3.26367188 14.01367188 C-3.33054885 8.55205195 -2.4909519 4.87075897 0 0 Z " fill="#435EA1" transform="translate(797,522)"/>
<path d="M0 0 C0.33 0 0.66 0 1 0 C2.15890535 7.47005253 2.04702594 13.02799149 -1 20 C-1.33 20 -1.66 20 -2 20 C-2.26404456 13.13484138 -1.25841946 6.74153283 0 0 Z " fill="#677DB3" transform="translate(805,446)"/>
<path d="M0 0 C2.16796875 0.36328125 2.16796875 0.36328125 4 1 C2.71451591 2.33929505 1.42141845 3.67128643 0.125 5 C-0.59429688 5.7425 -1.31359375 6.485 -2.0546875 7.25 C-4 9 -4 9 -6 9 C-5.52753358 4.74780225 -3.22727623 2.62685275 0 0 Z " fill="#4661A3" transform="translate(682,293)"/>
<path d="M0 0 C3.1017144 4.6525716 5.52232988 9.29532915 4.6875 15 C4.460625 15.99 4.23375 16.98 4 18 C3.67 18 3.34 18 3 18 C2.79503906 17.09636719 2.59007812 16.19273438 2.37890625 15.26171875 C2.10949219 14.08222656 1.84007812 12.90273438 1.5625 11.6875 C1.16224609 9.92986328 1.16224609 9.92986328 0.75390625 8.13671875 C0.04686031 4.99763029 0.04686031 4.99763029 -1 2 C-0.67 1.34 -0.34 0.68 0 0 Z " fill="#4862A4" transform="translate(954,29)"/>
<path d="M0 0 C-2.98646769 1.99097846 -5.59687262 2.94124926 -9 4 C-9.66 3.34 -10.32 2.68 -11 2 C-3.57142857 -1.57142857 -3.57142857 -1.57142857 0 0 Z " fill="#4E68A7" transform="translate(701,286)"/>
</svg>
