<?xml version="1.0" encoding="UTF-8"?>
<svg version="1.1" xmlns="http://www.w3.org/2000/svg" width="1200" height="1200">
<path d="M0 0 C1.43045075 -0.00702175 2.86090119 -0.01410858 4.29135132 -0.02125549 C8.83486383 -0.04064761 13.37832528 -0.04568923 17.921875 -0.046875 C18.6957531 -0.04731686 19.4696312 -0.04775871 20.26696014 -0.04821396 C43.21037352 -0.05508567 65.88444535 0.22655875 88.671875 3.203125 C90.08564586 3.37751284 91.49955064 3.55081779 92.91357422 3.72314453 C164.84472357 12.57091771 234.51758758 34.33360096 355.671875 102.203125 C356.33316406 102.65864746 356.99445312 103.11416992 357.67578125 103.58349609 C390.70384713 126.40218554 420.83996973 152.32254345 449.234375 180.640625 C450.08171204 181.48394379 450.08171204 181.48394379 450.94616699 182.34429932 C457.0739419 188.45000621 463.07738566 194.59805335 468.671875 201.203125 C469.70501581 202.38327784 470.74016277 203.56167755 471.77734375 204.73828125 C521.77852014 261.8469568 559.80270837 327.95468682 585.671875 399.203125 C586.09597656 400.36924316 586.52007813 401.53536133 586.95703125 402.73681641 C600.30767039 439.94125839 608.99602202 478.85155892 614.484375 517.953125 C614.58392487 518.6573761 614.68347473 519.3616272 614.78604126 520.08721924 C615.48757168 525.11814595 616.09546913 530.15649056 616.671875 535.203125 C616.76476807 535.96979492 616.85766113 536.73646484 616.95336914 537.52636719 C619.17500547 556.32746432 619.04676965 575.20924917 619.04248047 594.11181641 C619.04231921 597.81091133 619.05602976 601.50950415 619.08349609 605.20849609 C619.69649193 689.16557435 601.23116233 771.41977788 460.06933594 1008.69238281 C458.62955585 1010.24887463 457.20050339 1011.81466061 455.7734375 1013.3828125 C446.89828181 1023.11359873 437.87128634 1032.8090718 427.81640625 1041.33984375 C425.51006829 1043.34371116 423.2796361 1045.41566219 421.04760742 1047.50146484 C414.791395 1053.34421536 408.35150639 1058.8454128 401.671875 1064.203125 C400.47914158 1065.1858915 399.28782099 1066.17037431 398.09765625 1067.15625 C329.32501421 1123.96274865 246.5584219 1164.34136835 101.421875 1196.015625 C100.33016495 1196.16481384 100.33016495 1196.16481384 99.21640015 1196.3170166 C94.81988635 1196.9096084 90.41960554 1197.4480379 86.01074219 1197.94039917 C84.4488247 1198.11584995 82.88760404 1198.29761683 81.32714844 1198.48562622 C62.52536416 1200.70762511 43.65345431 1200.54428055 24.75097656 1200.51879883 C21.04577454 1200.51417968 17.34090174 1200.52105664 13.63574219 1200.53930664 C-9.23182233 1200.65083447 -31.61188705 1200.02085478 -54.328125 1197.203125 C-55.98923171 1197.0075093 -57.65036141 1196.8120887 -59.31152344 1196.61694336 C-63.20168942 1196.14420906 -67.07747536 1195.59656243 -70.953125 1195.015625 C-71.63105103 1194.91496735 -72.30897705 1194.81430969 -73.00744629 1194.71060181 C-90.62470857 1192.06801246 -107.99934305 1188.30539393 -125.328125 1184.203125 C-126.61074219 1183.90067871 -127.89335937 1183.59823242 -129.21484375 1183.28662109 C-160.3086294 1175.80643435 -191.15779592 1165.32216344 -220.328125 1152.203125 C-221.84937988 1151.52781738 -221.84937988 1151.52781738 -223.40136719 1150.83886719 C-271.00999732 1129.64234862 -315.71668917 1102.90357682 -356.328125 1070.203125 C-357.2459375 1069.46835938 -358.16375 1068.73359375 -359.109375 1067.9765625 C-377.30650916 1053.25829223 -394.26778413 1037.34410138 -410.828125 1020.828125 C-411.39487946 1020.26404938 -411.96163391 1019.69997375 -412.54556274 1019.11880493 C-418.69324949 1012.99317487 -424.6975723 1006.81385513 -430.328125 1000.203125 C-431.7413605 998.6583124 -433.15752909 997.11617175 -434.578125 995.578125 C-439.12534951 990.53847686 -443.2933493 985.25541636 -447.44921875 979.89453125 C-449.82978142 976.82616036 -452.263079 973.80493523 -454.71289062 970.79174805 C-476.38786447 944.04957439 -494.72476903 914.64380472 -511.12353516 884.41992188 C-511.91806108 882.95776229 -512.71712257 881.49805696 -513.52099609 880.04101562 C-547.82157372 817.80896559 -568.76609316 746.8225531 -577.640625 676.515625 C-577.78798096 675.34999023 -577.93533691 674.18435547 -578.0871582 672.98339844 C-578.54869885 669.06070852 -578.95179898 665.13468294 -579.328125 661.203125 C-579.41426056 660.32637115 -579.50039612 659.44961731 -579.58914185 658.54629517 C-581.34291812 640.19991662 -581.69225963 621.93296137 -581.64618301 603.52190399 C-581.64053833 601.2304426 -581.63772067 598.93898863 -581.63510132 596.64752197 C-581.59862407 574.69608724 -581.17553365 553.0017744 -578.328125 531.203125 C-578.15373716 529.78935414 -577.98043221 528.37544936 -577.80810547 526.96142578 C-575.12517293 505.14878345 -571.237258 483.62233189 -566.328125 462.203125 C-566.17879517 461.55146362 -566.02946533 460.89980225 -565.87561035 460.22839355 C-545.51322033 372.02828861 -503.2439151 287.34262658 -444.94482422 218.12402344 C-443.43119144 216.32558449 -441.92714415 214.51962115 -440.42578125 212.7109375 C-434.4332818 205.52142645 -428.17700821 198.61421829 -421.78808594 191.77636719 C-420.38563926 190.26510191 -418.99846931 188.74154708 -417.6171875 187.2109375 C-408.72085971 177.37540795 -399.5736976 167.60803258 -389.4375 159.03125 C-387.14184463 157.04168201 -384.92526296 154.98095629 -382.70605469 152.90698242 C-377.38805227 147.93998045 -371.99231921 143.15300258 -366.3125 138.59765625 C-364.09784958 136.82071815 -361.90320119 135.02816698 -359.71875 133.21484375 C-334.19442195 112.09281206 -306.17150444 93.47151114 -277.328125 77.203125 C-276.48008301 76.72004883 -275.63204102 76.23697266 -274.75830078 75.73925781 C-195.94372704 31.00464817 -105.88931563 4.62577439 0 0 Z " fill="#26A4E3" transform="translate(581.328125,-0.203125)"/>
<path d="M0 0 C7.10974025 7.0350581 8.60661497 16.00034934 8.75537109 25.63598633 C8.69702878 59.46126641 3.01467067 93.1917893 -1.625 126.625 C-1.83399967 128.13671664 -2.04298484 129.64843528 -2.25195312 131.16015625 C-2.78719071 135.02425757 -3.32931273 138.88735898 -3.875 142.75 C-4.02582031 143.82008301 -4.17664063 144.89016602 -4.33203125 145.99267578 C-4.9877948 150.55274328 -5.69434193 155.0896405 -6.546875 159.6171875 C-7.46442561 164.55294692 -8.22149811 169.50292547 -8.953125 174.46875 C-10.85863659 187.36805957 -12.95999532 200.23524874 -15.04767609 213.10610199 C-16.05731063 219.33341717 -17.06365722 225.56126517 -18.0703125 231.7890625 C-18.18127132 232.47528812 -18.29223015 233.16151375 -18.40655136 233.86853409 C-20.23909095 245.20379922 -22.04482396 256.54313841 -23.83654785 267.88491821 C-28.90389687 299.93586338 -34.17010801 331.95257574 -39.97827148 363.87817383 C-42.1355025 375.75930856 -44.16862785 387.65913437 -46.17269897 399.56698608 C-48.99159357 416.31174472 -51.94173406 433.00784782 -55.265625 449.66015625 C-56.20091535 454.3662475 -57.05983699 459.0775654 -57.859375 463.80859375 C-61.51415684 485.27506675 -66.52439632 510.42798857 -83.625 525.625 C-93.47348797 532.54785769 -104.81868965 534.28464046 -116.61572266 532.28808594 C-121.03972016 531.34110659 -125.33049649 530.03689157 -129.625 528.625 C-130.50671875 528.33625 -131.3884375 528.0475 -132.296875 527.75 C-148.40072147 521.85578169 -162.62928021 510.773574 -176.45703125 500.89453125 C-190.95406829 490.54058288 -205.83765536 480.76454417 -220.67999268 470.91583252 C-234.21715266 461.93169857 -247.72198011 452.90447469 -261.14648438 443.75268555 C-270.41087456 437.44036471 -279.70142079 431.16718464 -288.99554443 424.89874268 C-294.16421985 421.41212732 -299.33111196 417.92286927 -304.49832153 414.43408203 C-308.85994808 411.48969911 -313.22356846 408.5483299 -317.590271 405.61148071 C-319.33987806 404.43394349 -321.0882029 403.25453295 -322.8359375 402.07421875 C-324.85191783 400.71280981 -326.86993487 399.35440852 -328.890625 398 C-342.62539855 388.70414602 -355.75327453 379.19357359 -360.625 362.625 C-362.00663215 352.43546289 -356.46822918 343.5482264 -350.625 335.625 C-348.9009503 333.70653618 -347.12301657 331.92733365 -345.23828125 330.16796875 C-343.3940424 328.46847651 -343.3940424 328.46847651 -341.1875 325.625 C-339.20778157 323.30728086 -337.45253294 321.55818592 -335.15234375 319.625 C-329.69967237 314.90649696 -324.68376493 309.75598387 -319.625 304.625 C-314.07612757 298.99691186 -308.53883914 293.41697018 -302.52880859 288.27490234 C-299.06384393 285.27205146 -295.76296101 282.09295952 -292.4375 278.9375 C-287.33797333 274.11761226 -282.22833977 269.31129311 -277.0625 264.5625 C-270.22264804 258.27069252 -263.44742489 251.91080235 -256.67333984 245.54833984 C-253.98938726 243.02817554 -251.30344389 240.5101399 -248.6171875 237.99243164 C-247.29008039 236.74843136 -245.96325697 235.50412838 -244.63671875 234.25952148 C-241.24614672 231.07878265 -237.8514175 227.90267754 -234.44921875 224.734375 C-227.58812339 218.33712834 -220.7972438 211.90703969 -214.25 205.1875 C-212.24083676 203.22617398 -210.22397387 201.40542581 -208.09375 199.58496094 C-203.02439654 195.16292404 -198.26653983 190.44705784 -193.5 185.703125 C-193.03188904 185.23784142 -192.56377808 184.77255783 -192.08148193 184.29317474 C-189.60567719 181.83224224 -187.13266989 179.36854062 -184.66210938 176.90234375 C-182.14100877 174.38672115 -179.61075825 171.88051962 -177.07821655 169.37642288 C-175.10313091 167.42015691 -173.1349754 165.45702379 -171.16851807 163.49208832 C-169.79534227 162.12332168 -168.41511859 160.76163691 -167.03466797 159.40020752 C-156.62379476 149.41868493 -156.62379476 149.41868493 -150.9375 136.6875 C-151.65290063 133.5007154 -152.28105456 131.88213265 -154.625 129.625 C-159.07313467 128.14228844 -162.42907061 127.72918765 -166.7890625 129.5078125 C-169.80354591 131.1059672 -172.71659822 132.84414708 -175.625 134.625 C-176.7682373 135.31746826 -176.7682373 135.31746826 -177.93457031 136.02392578 C-187.22617797 141.66207188 -196.40265455 147.44038916 -205.43310547 153.4886322 C-210.6714364 156.99587159 -215.93299449 160.46653555 -221.203125 163.92578125 C-244.73861804 179.38451477 -268.15228864 195.01126719 -291.47038269 210.79588318 C-297.57148049 214.92213812 -303.69591736 219.01236181 -309.82823181 223.09202576 C-317.95582834 228.50304748 -326.04374873 233.97251871 -334.13360596 239.43972778 C-346.23290538 247.61587258 -358.33738949 255.78345484 -370.49609375 263.87109375 C-371.36628647 264.45004395 -372.23647919 265.02899414 -373.13304138 265.62548828 C-377.23482962 268.35330808 -381.3388408 271.07770544 -385.44604492 273.79736328 C-393.67060296 279.25388077 -401.79075195 284.82899573 -409.83583069 290.54695129 C-414.68981185 293.98856009 -419.58503371 297.30936728 -424.6875 300.375 C-425.7863855 301.04112305 -425.7863855 301.04112305 -426.9074707 301.72070312 C-434.26679135 306.11715985 -441.85859504 310.00238647 -449.625 313.625 C-450.73359375 314.14707031 -451.8421875 314.66914062 -452.984375 315.20703125 C-496.75878011 332.25650448 -552.65832317 307.20004217 -594.625 293.625 C-595.56238007 293.32243286 -596.49976013 293.01986572 -597.46554565 292.70812988 C-600.28783981 291.79382289 -603.10723791 290.87111095 -605.92578125 289.9453125 C-606.77010712 289.67153778 -607.61443298 289.39776306 -608.48434448 289.11569214 C-620.82758207 285.02652991 -633.87016755 279.71773313 -641.625 268.8125 C-643.25170927 263.62736421 -644.02661183 258.53440638 -641.59375 253.484375 C-640.07746603 251.34472984 -638.45446118 249.50390607 -636.625 247.625 C-635.99464844 246.96757813 -635.36429688 246.31015625 -634.71484375 245.6328125 C-623.63232509 234.98530859 -608.78253647 229.23901358 -594.875 223.25 C-593.07778244 222.46894379 -591.28083181 221.68727315 -589.48413086 220.9050293 C-574.9777763 214.59982838 -560.43195264 208.38510776 -545.88549805 202.1730957 C-534.95300318 197.50126035 -524.05560347 192.7571228 -513.1875 187.9375 C-502.1151365 183.02786831 -491.01450277 178.19288682 -479.875 173.4375 C-465.99693647 167.51284337 -452.14841801 161.52242897 -438.3125 155.5 C-437.320224 155.06814392 -436.327948 154.63628784 -435.30560303 154.19134521 C-431.3995111 152.49128654 -427.49348254 150.79108245 -423.58758545 149.09057617 C-411.63259728 143.88603278 -399.66958899 138.70009297 -387.70239258 133.52368164 C-385.46490244 132.55574167 -383.22756534 131.58744846 -380.99023438 130.61914062 C-322.36076442 105.24790716 -263.65186393 80.05991454 -204.625 55.625 C-203.89307434 55.32178833 -203.16114868 55.01857666 -202.40704346 54.70617676 C-162.38861659 38.13119671 -122.29857787 21.53487653 -81.625 6.625 C-80.72072266 6.29016602 -79.81644531 5.95533203 -78.88476562 5.61035156 C-69.3414601 2.09051043 -59.73969419 -1.02757865 -49.9375 -3.75 C-49.04039307 -4.00112549 -48.14328613 -4.25225098 -47.21899414 -4.51098633 C-32.02449809 -8.59255854 -12.96143158 -10.68666479 0 0 Z " fill="#FEFEFE" transform="translate(869.625,368.375)"/>
</svg>
